<?xml version="1.0" standalone="no"?>
<!DOCTYPE svg PUBLIC "-//W3C//DTD SVG 20010904//EN"
 "http://www.w3.org/TR/2001/REC-SVG-20010904/DTD/svg10.dtd">
<svg version="1.0" xmlns="http://www.w3.org/2000/svg"
 width="1544.000000pt" height="1254.000000pt" viewBox="0 0 1544.000000 1254.000000"
 preserveAspectRatio="xMidYMid meet">

<g transform="translate(0.000000,1254.000000) scale(0.100000,-0.100000)"
fill="#000000" stroke="none">
<path d="M2880 12509 c-190 -3 -370 -9 -400 -12 -30 -4 -104 -12 -165 -17
-292 -28 -609 -114 -835 -228 -345 -173 -610 -396 -796 -667 -60 -87 -169
-306 -214 -430 -61 -167 -125 -483 -134 -655 -3 -52 -3 -84 0 -70 24 133 64
318 91 415 122 446 355 835 634 1060 120 97 255 176 298 174 12 0 9 -5 -9 -17
-372 -256 -614 -542 -745 -882 -127 -328 -182 -681 -192 -1238 -5 -261 -9
-326 -20 -338 -8 -8 -34 -14 -60 -14 -29 0 -66 -10 -100 -26 l-54 -27 3 -60 3
-61 65 -12 c36 -7 81 -13 100 -14 71 -1 65 99 65 -1137 0 -1415 13 -5999 21
-7281 l6 -972 98 0 97 0 -3 918 c-2 504 -6 1284 -9 1732 -3 448 -9 1994 -14
3435 -6 1441 -13 2787 -17 2992 -6 296 -5 375 6 388 10 12 36 15 130 15 l118
0 6 -2622 c3 -1443 9 -3576 12 -4741 l6 -2117 138 0 138 0 -4 2302 c-3 1267
-6 2463 -8 2658 -3 195 -8 1426 -12 2735 -6 2195 -5 2394 10 2565 39 415 104
668 222 857 145 230 326 401 530 499 198 95 398 144 674 164 221 17 2263 19
2316 3 75 -23 78 -31 85 -241 10 -268 34 -338 160 -463 121 -119 268 -184 479
-210 70 -9 670 -12 2245 -12 2414 -1 2221 -7 2383 74 148 75 253 217 274 373
5 40 6 159 2 272 l-6 202 34 37 c29 32 41 37 93 43 101 12 2298 -4 2410 -17
256 -29 518 -97 706 -184 181 -83 353 -233 444 -387 168 -287 267 -569 314
-895 18 -132 20 -213 26 -1385 3 -685 10 -1897 15 -2695 5 -797 12 -2540 16
-3872 l7 -2423 155 0 154 0 -6 88 c-12 181 -18 932 -21 2712 -2 1266 -7 1856
-14 1904 -7 40 -8 73 -2 80 5 6 5 39 0 76 -10 77 -28 2697 -29 4255 -1 605 -5
1168 -10 1250 -5 83 -13 228 -16 323 -7 167 -6 174 14 202 15 20 22 44 22 74
0 25 5 57 10 72 10 26 11 26 24 8 30 -43 88 -256 115 -416 25 -155 31 -200 41
-333 20 -280 21 -444 49 -7847 5 -1324 12 -2416 16 -2427 6 -19 14 -21 77 -21
l71 0 -5 1247 c-3 687 -2 1259 2 1273 6 21 8 19 13 -20 4 -25 9 -84 13 -132 3
-49 9 -90 14 -93 4 -3 5 -34 3 -69 -7 -86 1 -114 35 -122 15 -4 32 -11 38 -16
16 -12 99 25 108 49 8 19 -2 2812 -10 2851 -3 16 -11 22 -32 22 -15 0 -37 7
-48 15 l-21 14 -7 1378 c-4 758 -9 1753 -11 2211 -4 759 -3 836 12 865 14 29
15 50 5 207 -7 96 -14 249 -17 340 -16 455 -79 865 -175 1125 -12 33 -26 74
-31 90 -16 53 -113 238 -174 329 -107 164 -262 332 -420 458 -111 88 -233 163
-387 238 -327 158 -626 229 -1053 251 -215 11 -9559 9 -10185 -2z m10327 -39
c245 -21 459 -67 663 -143 115 -43 243 -99 300 -130 30 -16 75 -41 98 -54 546
-300 898 -935 977 -1758 8 -88 18 -260 22 -382 l6 -223 -50 0 c-37 0 -53 4
-57 16 -3 9 -6 79 -6 157 0 471 -52 816 -182 1217 -63 195 -210 454 -336 591
-186 203 -509 402 -797 492 -362 113 -576 134 -1220 122 -231 -4 -440 -10
-465 -12 -25 -2 -1242 -5 -2705 -7 -3177 -3 -3628 -5 -3560 -18 28 -5 1397
-12 3160 -17 2123 -6 3163 -13 3278 -20 92 -7 172 -9 176 -6 11 6 406 -11 581
-25 150 -12 255 -29 277 -45 32 -23 -1319 -30 -6172 -30 -2678 0 -4875 -3
-4882 -8 -6 -4 -21 -3 -34 1 -20 8 -16 11 32 26 30 10 65 25 79 34 50 33 116
64 168 77 28 8 62 21 75 31 21 15 15 16 -103 10 -243 -12 -593 -60 -775 -105
-22 -6 -46 -11 -54 -11 -23 0 18 39 59 57 69 29 246 85 300 94 204 36 223 38
645 68 173 13 10349 13 10502 1z m-7558 -905 c52 -26 81 -71 81 -123 0 -88
-63 -143 -145 -128 -19 4 -36 2 -40 -4 -3 -5 -21 -10 -40 -10 -81 0 -122 140
-63 215 48 62 142 84 207 50z m3385 -77 c10 -48 -3 -95 -36 -130 -22 -24 -32
-28 -41 -19 -8 8 -9 14 -1 19 22 14 34 52 34 110 0 32 3 62 7 65 11 12 30 -12
37 -45z m842 7 c8 -34 -2 -57 -23 -53 -13 2 -19 14 -21 41 -3 32 0 37 17 37
14 0 23 -9 27 -25z m-8896 -375 c0 -5 -2 -10 -4 -10 -3 0 -8 5 -11 10 -3 6 -1
10 4 10 6 0 11 -4 11 -10z m-20 -62 c-1 -29 -15 -134 -30 -213 -37 -206 -70
-582 -79 -915 l-6 -245 -127 -3 -128 -3 0 158 c0 263 29 606 67 793 16 77 26
126 38 193 4 20 12 37 16 37 5 0 9 19 9 41 0 40 1 41 28 35 15 -4 34 -8 41
-10 8 -1 17 -8 19 -14 7 -21 27 -13 50 18 12 16 22 33 22 37 0 16 61 113 70
113 6 0 10 -10 10 -22z m14276 -1567 l41 -19 7 -671 c3 -369 9 -971 12 -1338
5 -436 3 -793 -5 -1028 -6 -198 -12 -597 -12 -886 l-1 -527 -31 -9 -32 -9 -3
-94 c-1 -51 0 -101 4 -109 8 -20 6 -173 -3 -266 l-7 -70 -8 45 c-4 25 -10 146
-14 270 -10 315 -28 4671 -20 4704 8 31 17 32 72 7z"/>
<path d="M5492 11501 c-12 -21 -22 -55 -22 -75 0 -46 25 -60 105 -58 72 2 95
22 95 84 0 59 -34 88 -103 88 -52 0 -54 -1 -75 -39z"/>
<path d="M313 10295 c0 -22 2 -30 4 -17 2 12 2 30 0 40 -3 9 -5 -1 -4 -23z"/>
<path d="M306 9178 c-3 -40 -10 -244 -16 -453 -11 -431 -23 -574 -52 -611 -17
-20 -28 -24 -77 -24 -31 0 -65 -6 -74 -12 -23 -17 -30 -91 -19 -193 l8 -80 8
92 c9 105 23 126 78 121 26 -2 32 -7 30 -23 -1 -11 -4 -170 -6 -354 -5 -372
-3 -363 -73 -365 l-38 -1 0 -57 c1 -80 15 -93 108 -93 l72 0 6 -265 c9 -380 9
-772 0 -795 -6 -16 -23 -22 -82 -30 l-74 -10 -3 -194 c-1 -123 1 -198 8 -205
7 -7 10 23 11 94 1 58 4 137 8 175 6 69 6 70 35 68 15 -1 39 -9 52 -18 l24
-16 -2 -961 -3 -962 -33 -7 c-18 -4 -49 -3 -67 1 -33 7 -35 7 -35 -19 0 -40
18 -51 85 -51 34 0 66 -5 73 -12 14 -14 17 -675 3 -747 -11 -55 -28 -68 -97
-77 l-54 -6 0 -760 c0 -476 4 -757 9 -753 6 3 10 278 11 712 0 388 3 710 6
714 10 17 30 9 67 -25 l37 -34 0 -980 c0 -898 -1 -980 -16 -986 -23 -9 -81 3
-95 20 -17 20 -29 7 -29 -30 0 -40 12 -51 65 -60 22 -4 55 -12 73 -17 l32 -11
0 -439 c0 -247 4 -439 9 -439 19 0 26 1017 25 3845 -2 2268 -5 3004 -14 3115
-21 242 -25 922 -6 1145 8 105 18 318 21 475 2 157 8 372 11 478 7 194 2 253
-10 120z m-116 -1938 c6 -12 8 -30 5 -40 -13 -40 -55 -15 -55 32 0 21 5 28 20
28 10 0 24 -9 30 -20z"/>
<path d="M15322 1430 c-2 -423 7 -782 19 -774 9 5 1 702 -11 979 -6 147 -7
118 -8 -205z"/>
<path d="M15335 513 c4 -43 9 -80 11 -82 2 -2 4 32 4 77 0 52 -4 82 -11 82 -7
0 -9 -24 -4 -77z"/>
<path d="M15343 185 c-1 -104 1 -181 5 -170 4 11 5 96 2 190 l-6 170 -1 -190z"/>
</g>
</svg>
