<?xml version="1.0" standalone="no"?>
<!DOCTYPE svg PUBLIC "-//W3C//DTD SVG 20010904//EN"
 "http://www.w3.org/TR/2001/REC-SVG-20010904/DTD/svg10.dtd">
<svg version="1.0" xmlns="http://www.w3.org/2000/svg"
 width="1544.000000pt" height="3101.000000pt" viewBox="0 0 1544.000000 3101.000000"
 preserveAspectRatio="xMidYMid meet">

<g transform="translate(0.000000,3101.000000) scale(0.100000,-0.100000)"
fill="#000000" stroke="none">
<path d="M2880 30979 c-190 -3 -370 -9 -400 -12 -30 -4 -104 -12 -165 -17
-292 -28 -609 -114 -835 -228 -345 -173 -610 -396 -796 -667 -60 -87 -168
-305 -214 -430 -60 -164 -126 -485 -134 -655 -3 -67 -2 -80 3 -45 11 71 38
192 71 325 104 411 286 760 529 1014 128 133 355 288 420 285 12 0 9 -5 -9
-17 -372 -256 -614 -542 -745 -882 -127 -328 -182 -681 -192 -1238 -5 -261 -9
-326 -20 -338 -8 -8 -34 -14 -60 -14 -29 0 -66 -10 -100 -26 l-54 -27 3 -60 3
-61 65 -12 c36 -7 81 -13 100 -14 19 0 42 -5 50 -10 13 -8 15 -189 17 -1517 1
-829 7 -2869 13 -4533 6 -1664 14 -4314 19 -5890 12 -3803 13 -13031 2 -13049
-11 -17 -76 -7 -119 19 l-32 20 0 1702 c1 937 -3 3111 -7 4833 -9 3790 -10
5447 -3 6360 3 380 4 1187 2 1795 -2 655 1 1290 8 1560 15 589 5 6104 -11
6285 -16 185 -23 962 -9 1075 6 52 15 257 20 455 5 198 11 448 14 555 3 132 2
177 -4 140 -5 -30 -13 -235 -19 -455 -12 -445 -24 -583 -53 -621 -17 -20 -28
-24 -77 -24 -31 0 -65 -6 -74 -12 -23 -17 -30 -91 -19 -193 l8 -80 8 92 c9
105 22 126 78 121 26 -2 32 -7 30 -23 -1 -11 -4 -170 -6 -354 -5 -372 -3 -363
-73 -365 l-38 -1 0 -57 c1 -80 15 -93 108 -93 l72 0 6 -265 c9 -380 9 -772 0
-795 -6 -16 -23 -22 -82 -30 l-74 -10 -3 -188 c-1 -111 2 -195 7 -205 7 -12
11 17 12 98 1 63 4 142 8 175 6 58 7 60 35 58 15 -1 39 -9 52 -18 l24 -16 -2
-961 -3 -962 -33 -7 c-18 -4 -49 -3 -67 1 -33 7 -35 7 -35 -19 0 -40 18 -51
85 -51 34 0 66 -5 73 -12 14 -14 17 -675 3 -747 -11 -55 -28 -68 -97 -77 l-54
-6 0 -761 c0 -418 3 -757 7 -753 5 4 10 328 13 719 6 793 1 749 73 683 l37
-34 0 -980 c0 -898 -1 -980 -16 -986 -23 -9 -81 3 -95 20 -17 20 -29 7 -29
-30 0 -40 12 -51 65 -60 22 -4 54 -11 71 -17 l31 -10 -4 -8297 c-3 -6122 -2
-8361 7 -8542 31 -661 164 -1097 454 -1485 328 -439 652 -679 1086 -805 41
-12 86 -26 100 -31 25 -8 144 -34 230 -50 123 -22 259 -39 398 -48 214 -15
4456 -15 4538 0 32 6 73 19 91 29 63 37 129 40 808 40 l662 0 64 -26 c134 -56
37 -53 2062 -54 2070 0 2417 6 2712 51 590 89 1017 273 1353 584 182 169 345
422 431 669 39 114 93 303 110 391 67 340 75 554 66 1723 -4 528 -11 942 -16
942 -5 0 -10 -198 -10 -447 -1 -247 -5 -583 -8 -747 -5 -266 -8 -300 -23 -310
-11 -7 -26 -7 -45 0 l-28 9 -12 1555 c-6 855 -16 2313 -22 3240 -6 927 -15
2290 -21 3030 -27 3520 -53 10173 -40 10220 6 21 8 19 13 -20 4 -25 9 -84 13
-132 3 -49 9 -90 14 -93 4 -3 5 -34 3 -69 -7 -86 1 -114 35 -122 15 -4 32 -11
38 -16 16 -12 99 25 108 49 8 19 -2 2812 -10 2851 -3 16 -11 22 -32 22 -15 0
-37 7 -48 15 l-21 14 -7 1378 c-4 758 -9 1753 -11 2211 -4 755 -3 836 11 865
15 28 15 50 5 207 -6 96 -13 249 -16 340 -24 706 -142 1186 -382 1547 -200
302 -461 527 -805 693 -327 158 -626 229 -1053 251 -215 11 -9558 9 -10185 -2z
m10370 -44 c295 -27 465 -71 785 -203 95 -40 249 -124 352 -193 186 -126 331
-277 478 -498 84 -128 144 -248 216 -439 117 -307 171 -635 185 -1129 l7 -223
-50 0 c-37 0 -53 4 -57 16 -3 9 -6 79 -6 157 0 471 -52 816 -182 1217 -63 195
-210 454 -336 591 -186 203 -509 402 -797 492 -362 113 -576 134 -1220 122
-231 -4 -440 -10 -465 -12 -25 -2 -1242 -5 -2705 -7 -3177 -3 -3628 -5 -3560
-18 28 -5 1397 -12 3160 -17 2123 -6 3163 -13 3278 -20 92 -7 172 -9 176 -6
11 6 406 -11 581 -25 150 -12 255 -29 277 -45 32 -23 -1319 -30 -6172 -30
-2678 0 -4875 -3 -4882 -8 -6 -4 -21 -3 -34 1 -20 8 -16 11 32 26 30 10 65 25
79 34 50 33 116 64 168 77 28 8 62 21 75 31 21 15 15 16 -103 10 -243 -12
-593 -60 -775 -105 -22 -6 -46 -11 -54 -11 -23 0 18 39 59 57 66 28 245 85
295 94 179 32 274 42 650 68 61 5 2423 9 5250 9 4381 1 5163 -1 5295 -13z
m-1105 -609 c488 -3 828 -8 890 -15 255 -29 518 -97 706 -184 181 -83 353
-233 444 -387 168 -287 267 -569 314 -895 18 -132 20 -210 25 -1340 3 -660 10
-1922 16 -2805 6 -883 14 -3103 18 -4935 4 -1831 10 -3335 14 -3341 4 -6 12
-1524 18 -3375 6 -1850 15 -4300 20 -5444 14 -3112 15 -5067 1 -5270 -13 -183
-39 -358 -72 -487 -85 -335 -327 -679 -590 -840 -99 -60 -289 -115 -536 -155
-102 -16 -416 -17 -5288 -14 -2849 1 -5315 7 -5480 11 -355 11 -458 24 -622
81 -161 55 -367 205 -504 365 -137 161 -211 292 -268 479 -81 266 -84 330 -85
1495 -7 8612 -24 19475 -30 20195 -2 132 -6 1329 -11 2660 -7 2236 -6 2434 9
2605 39 415 104 668 222 857 145 230 326 401 530 499 198 95 398 144 674 164
221 17 2263 19 2316 3 75 -23 78 -31 85 -241 10 -268 34 -338 160 -463 121
-119 268 -184 479 -210 70 -9 670 -12 2245 -12 2414 -1 2221 -7 2383 74 148
75 253 217 274 373 5 40 6 159 2 272 l-6 202 34 37 c45 49 64 51 488 48 184
-2 691 -5 1125 -7z m-6496 -291 c52 -26 81 -71 81 -123 0 -88 -63 -143 -145
-128 -19 4 -36 2 -40 -4 -3 -5 -21 -10 -40 -10 -81 0 -122 140 -63 215 48 62
142 84 207 50z m3385 -77 c10 -48 -3 -95 -36 -130 -22 -24 -32 -28 -41 -19 -8
8 -9 14 -1 19 22 14 34 52 34 110 0 32 3 62 7 65 11 12 30 -12 37 -45z m842 7
c8 -34 -2 -57 -23 -53 -13 2 -19 14 -21 41 -3 32 0 37 17 37 14 0 23 -9 27
-25z m-8896 -375 c0 -5 -2 -10 -4 -10 -3 0 -8 5 -11 10 -3 6 -1 10 4 10 6 0
11 -4 11 -10z m-20 -62 c-1 -29 -15 -134 -30 -213 -37 -206 -70 -582 -79 -915
l-6 -245 -127 -3 -128 -3 0 158 c0 263 29 606 67 793 16 77 26 126 38 193 4
20 12 37 16 37 5 0 9 19 9 41 0 40 1 41 28 35 15 -4 34 -8 41 -10 8 -1 17 -8
19 -14 7 -21 27 -13 50 18 12 16 22 33 22 37 0 16 61 113 70 113 6 0 10 -10
10 -22z m13918 -95 c25 -72 65 -238 81 -335 25 -155 31 -200 41 -333 20 -279
21 -484 49 -7800 5 -1287 12 -2407 15 -2490 7 -161 13 -1929 21 -6135 3 -1460
10 -2837 15 -3060 16 -639 18 -6932 3 -7000 -7 -30 -22 -109 -33 -175 -38
-228 -77 -380 -106 -419 -23 -32 -26 -13 -14 85 38 302 39 352 29 1619 -5 586
-11 1544 -14 2130 -3 652 -11 1216 -20 1455 -21 553 -35 1779 -35 3053 0 602
-3 1098 -6 1103 -3 6 -7 475 -9 1042 -2 568 -10 1534 -17 2147 -8 653 -12
1705 -9 2540 2 900 -1 1613 -8 1935 -7 281 -14 1365 -16 2410 -2 1310 -7 1921
-14 1969 -7 40 -8 73 -2 80 5 6 5 39 0 76 -10 77 -28 2697 -29 4255 -1 605 -5
1168 -10 1250 -5 83 -13 228 -16 323 -7 167 -6 174 14 202 15 20 22 44 22 74
0 25 5 57 10 72 10 26 11 26 24 8 7 -10 23 -47 34 -81z m358 -1472 l41 -19 7
-666 c3 -366 9 -964 12 -1328 4 -427 3 -802 -5 -1053 -6 -214 -12 -618 -12
-896 l-1 -507 -31 -9 -32 -9 -3 -94 c-1 -51 0 -101 4 -109 8 -20 6 -173 -3
-266 l-7 -70 -8 45 c-4 25 -10 146 -14 270 -10 315 -28 4671 -20 4704 8 31 17
32 72 7z m-14386 -2133 c0 -1168 4 -2571 10 -3118 5 -547 13 -2460 17 -4250
10 -4178 10 -15576 0 -15586 -4 -4 -51 -9 -105 -11 l-99 -3 -6 817 c-15 1830
-17 2473 -22 6588 -8 6627 -16 10926 -20 11195 -1 135 -8 1485 -14 3000 -6
1515 -13 2913 -17 3107 -6 280 -5 355 6 368 10 12 36 15 131 15 l119 0 0
-2122z m-660 -118 c6 -12 8 -30 5 -40 -13 -40 -55 -15 -55 32 0 21 5 28 20 28
10 0 24 -9 30 -20z m260 -23065 c8 -9 15 -84 21 -212 25 -530 90 -816 264
-1169 47 -95 89 -184 95 -200 l11 -28 -23 19 c-127 110 -273 352 -354 585 -45
131 -98 352 -118 490 -45 309 -58 513 -33 523 29 12 125 7 137 -8z m443 -22
c3 -5 1 -71 -4 -148 -4 -77 -9 -202 -11 -278 -3 -198 -19 -137 -25 98 -2 105
-6 200 -9 212 -2 12 -17 29 -32 37 -23 12 -30 12 -54 0 -29 -15 -28 -12 -33
-124 -1 -19 -3 -87 -4 -150 -2 -63 -6 -144 -9 -180 -7 -65 -7 -64 -13 45 -4
61 -11 193 -17 294 -6 102 -9 188 -6 193 6 10 211 11 217 1z m14517 -20 c-9
-254 -41 -541 -86 -761 -48 -237 -154 -492 -248 -596 -20 -22 -36 -37 -36 -34
0 8 28 89 41 118 7 14 16 34 20 45 12 28 80 234 90 270 4 17 14 55 22 85 8 30
20 91 27 135 6 44 16 103 20 130 12 68 28 260 36 431 3 78 9 146 13 151 3 5
24 14 46 20 53 14 55 14 55 6z m-14658 -792 c2 -17 1 -28 -4 -25 -8 5 -12 54
-4 54 2 0 6 -13 8 -29z m28 -92 c0 -11 -4 -17 -10 -14 -5 3 -10 15 -10 26 0
11 5 17 10 14 6 -3 10 -15 10 -26z m100 -271 c11 -20 16 -39 11 -42 -9 -6 -51
74 -51 96 0 15 12 0 40 -54z m815 -1069 c37 -16 65 -32 63 -35 -9 -8 -168 50
-168 61 0 13 44 2 105 -26z m262 -95 c-3 -3 -12 -4 -19 -1 -8 3 -5 6 6 6 11 1
17 -2 13 -5z"/>
<path d="M5492 29971 c-12 -21 -22 -55 -22 -75 0 -46 25 -60 105 -58 72 2 95
22 95 84 0 59 -34 88 -103 88 -52 0 -54 -1 -75 -39z"/>
<path d="M765 3723 c-3 -21 -6 -55 -6 -75 0 -66 0 -81 -4 -208 -2 -69 -8 -159
-13 -201 -12 -98 -15 -260 -4 -277 5 -7 22 -14 38 -15 l29 -2 -1 100 c0 101
-11 680 -13 703 -2 27 -19 10 -26 -25z"/>
<path d="M312 28760 c0 -19 2 -27 5 -17 2 9 2 25 0 35 -3 9 -5 1 -5 -18z"/>
<path d="M15322 19900 c-2 -416 7 -782 19 -774 8 5 1 686 -11 969 -6 160 -7
138 -8 -195z"/>
<path d="M15343 19000 c0 -36 2 -50 4 -32 2 17 2 47 0 65 -2 17 -4 3 -4 -33z"/>
<path d="M15341 18914 c0 -11 3 -14 6 -6 3 7 2 16 -1 19 -3 4 -6 -2 -5 -13z"/>
<path d="M15345 15255 c3 -1974 11 -3815 17 -4090 5 -275 14 -1632 19 -3015 9
-2529 14 -3140 28 -3260 10 -87 3 4112 -9 5385 -6 556 -12 2065 -15 3355 -6
2198 -29 5198 -42 5210 -3 3 -2 -1610 2 -3585z"/>
</g>
</svg>
